<svg width="12" height="16" viewBox="0 0 12 16" fill="none" xmlns="http://www.w3.org/2000/svg">
<g clip-path="url(#clip0_3483_655)">
<path d="M11.7926 10.8789C11.7926 11.0296 11.7646 11.2263 11.7088 11.469C11.653 11.7118 11.5944 11.9029 11.5331 12.0424C11.4159 12.3214 11.0755 12.6172 10.5119 12.9297C9.9873 13.2143 9.46833 13.3566 8.95494 13.3566C8.80427 13.3566 8.65639 13.3468 8.5113 13.3273C8.36621 13.3077 8.20578 13.2729 8.02999 13.2226C7.85421 13.1724 7.72307 13.132 7.63658 13.1013C7.55008 13.0706 7.39523 13.0134 7.17201 12.9297C6.9488 12.846 6.81208 12.7957 6.76186 12.779C6.21498 12.5837 5.7267 12.3521 5.29701 12.0842C4.58831 11.6434 3.8517 11.0407 3.08719 10.2762C2.32268 9.5117 1.72001 8.77509 1.27916 8.06638C1.0113 7.6367 0.779715 7.14841 0.584403 6.60154C0.567662 6.55132 0.517439 6.4146 0.433733 6.19138C0.350028 5.96817 0.292829 5.81331 0.262137 5.72682C0.231445 5.64032 0.190988 5.50918 0.140765 5.3334C0.0905413 5.15762 0.0556641 4.99718 0.0361328 4.8521C0.0166016 4.70701 0.00683594 4.55913 0.00683594 4.40846C0.00683594 3.89506 0.149135 3.37609 0.433733 2.85154C0.746233 2.28792 1.04199 1.94752 1.32101 1.83033C1.46052 1.76895 1.65165 1.71035 1.89439 1.65455C2.13714 1.59874 2.33384 1.57084 2.48451 1.57084C2.56264 1.57084 2.62123 1.57921 2.6603 1.59595C2.76074 1.62944 2.90862 1.84149 3.10393 2.23212C3.16532 2.33814 3.24902 2.48881 3.35505 2.68412C3.46108 2.87944 3.55873 3.05661 3.64802 3.21565C3.7373 3.37469 3.8238 3.52397 3.90751 3.66348C3.92425 3.6858 3.97307 3.75556 4.05399 3.87274C4.1349 3.98993 4.19489 4.08898 4.23396 4.1699C4.27302 4.25081 4.29255 4.33033 4.29255 4.40846C4.29255 4.52006 4.21303 4.65957 4.05399 4.82698C3.89495 4.9944 3.72196 5.14785 3.53502 5.28736C3.34807 5.42687 3.17508 5.57475 3.01604 5.731C2.857 5.88725 2.77748 6.0156 2.77748 6.11605C2.77748 6.16627 2.79143 6.22905 2.81934 6.30439C2.84724 6.37972 2.87095 6.43692 2.89049 6.47598C2.91002 6.51504 2.94908 6.58201 3.00767 6.67687C3.06627 6.77174 3.09835 6.82475 3.10393 6.83591C3.52804 7.60042 4.01353 8.25612 4.56041 8.80299C5.10728 9.34987 5.76297 9.83536 6.52748 10.2595C6.53864 10.265 6.59166 10.2971 6.68652 10.3557C6.78139 10.4143 6.84835 10.4534 6.88742 10.4729C6.92648 10.4924 6.98368 10.5162 7.05901 10.5441C7.13435 10.572 7.19713 10.5859 7.24735 10.5859C7.3478 10.5859 7.47614 10.5064 7.63239 10.3474C7.78864 10.1883 7.93652 10.0153 8.07603 9.82838C8.21554 9.64144 8.369 9.46845 8.53641 9.30941C8.70382 9.15037 8.84333 9.07085 8.95494 9.07085C9.03306 9.07085 9.11258 9.09038 9.1935 9.12944C9.27441 9.16851 9.37347 9.22849 9.49065 9.30941C9.60784 9.39033 9.67759 9.43915 9.69992 9.45589C9.83943 9.5396 9.9887 9.6261 10.1477 9.71538C10.3068 9.80467 10.484 9.90232 10.6793 10.0084C10.8746 10.1144 11.0253 10.1981 11.1313 10.2595C11.5219 10.4548 11.734 10.6027 11.7674 10.7031C11.7842 10.7422 11.7926 10.8008 11.7926 10.8789Z" fill="white" fill-opacity="0.85"/>
</g>
<defs>
<clipPath id="clip0_3483_655">
<rect width="11.8" height="15" fill="white" transform="matrix(1 0 0 -1 0 15.5)"/>
</clipPath>
</defs>
</svg>
