<svg width="16" height="15" viewBox="0 0 16 15" fill="none" xmlns="http://www.w3.org/2000/svg">
<g clip-path="url(#clip0_3483_659)">
<path d="M15.0093 5.94077V12.587C15.0093 12.9553 14.8781 13.2706 14.6159 13.5329C14.3536 13.7951 14.0383 13.9263 13.67 13.9263H1.34856C0.980259 13.9263 0.664969 13.7951 0.402692 13.5329C0.140416 13.2706 0.00927734 12.9553 0.00927734 12.587V5.94077C0.254813 6.21421 0.536621 6.45695 0.854701 6.66901C2.87479 8.04178 4.26151 9.00439 5.01486 9.55685C5.33294 9.79122 5.59103 9.97398 5.78913 10.1051C5.98723 10.2363 6.25091 10.3702 6.58015 10.5069C6.90939 10.6436 7.21631 10.712 7.50091 10.712H7.50928H7.51765C7.80225 10.712 8.10917 10.6436 8.43841 10.5069C8.76765 10.3702 9.03132 10.2363 9.22942 10.1051C9.42752 9.97398 9.68562 9.79122 10.0037 9.55685C10.9524 8.87046 12.3419 7.90785 14.1722 6.66901C14.4903 6.45137 14.7693 6.20863 15.0093 5.94077ZM15.0093 3.47983C15.0093 3.92068 14.8726 4.342 14.5991 4.74378C14.3257 5.14557 13.9853 5.48876 13.5779 5.77336C11.4797 7.22984 10.1739 8.13664 9.6605 8.49379C9.6047 8.53285 9.48612 8.61795 9.30476 8.74909C9.12339 8.88023 8.97273 8.98625 8.85275 9.06717C8.73277 9.14808 8.58768 9.23877 8.41748 9.33921C8.24728 9.43966 8.08684 9.51499 7.93617 9.56522C7.7855 9.61544 7.646 9.64055 7.51765 9.64055H7.50928H7.50091C7.37256 9.64055 7.23305 9.61544 7.08238 9.56522C6.93171 9.51499 6.77128 9.43966 6.60107 9.33921C6.43087 9.23877 6.28578 9.14808 6.16581 9.06717C6.04583 8.98625 5.89516 8.88023 5.7138 8.74909C5.53244 8.61795 5.41385 8.53285 5.35805 8.49379C4.85024 8.13664 4.11921 7.62744 3.16497 6.96616C2.21073 6.30489 1.63874 5.90729 1.44901 5.77336C1.10303 5.53899 0.776576 5.21672 0.469657 4.80656C0.162737 4.39641 0.00927734 4.01555 0.00927734 3.66398C0.00927734 3.22872 0.12507 2.86599 0.356655 2.57581C0.588239 2.28563 0.918876 2.14054 1.34856 2.14054H13.67C14.0327 2.14054 14.3466 2.27168 14.6117 2.53396C14.8767 2.79624 15.0093 3.11153 15.0093 3.47983Z" fill="white" fill-opacity="0.85"/>
</g>
<defs>
<clipPath id="clip0_3483_659">
<rect width="15.02" height="15" fill="white" transform="matrix(1 0 0 -1 0 15)"/>
</clipPath>
</defs>
</svg>
