<svg width="22" height="21" viewBox="0 0 22 21" fill="none" xmlns="http://www.w3.org/2000/svg">
<g clip-path="url(#clip0_3483_84)">
<path d="M20.6063 13.9935H20.2617V11.3743C20.2617 11.0067 20.1353 10.6966 19.8826 10.4438C19.6299 10.1911 19.3197 10.0648 18.9521 10.0648V4.61969C18.9521 4.25209 18.8258 3.94193 18.573 3.6892C18.3203 3.43648 18.0101 3.31011 17.6425 3.31011H4.13327C3.76567 3.31011 3.45551 3.43648 3.20278 3.6892C2.95006 3.94193 2.8237 4.25209 2.8237 4.61969V10.0648C2.4561 10.0648 2.14593 10.1911 1.89321 10.4438C1.64048 10.6966 1.51412 11.0067 1.51412 11.3743V13.9935H1.1695C1.0776 13.9935 1.00867 14.0164 0.962724 14.0624C0.916774 14.1083 0.893799 14.1773 0.893799 14.2692V15.5787C0.893799 15.6706 0.916774 15.7511 0.962724 15.82C1.00867 15.8889 1.0776 15.9234 1.1695 15.9234H1.51412V17.164C1.51412 17.2559 1.54859 17.3363 1.61751 17.4052C1.68643 17.4742 1.76685 17.5086 1.85875 17.5086H2.8237C3.00749 17.5086 3.09939 17.4167 3.09939 17.2329L3.37509 15.9234H18.4007L18.6764 17.2329C18.6764 17.4167 18.7683 17.5086 18.9521 17.5086H19.9171C20.009 17.5086 20.0894 17.4742 20.1583 17.4052C20.2272 17.3363 20.2617 17.2559 20.2617 17.164V15.9234H20.6063C20.6982 15.9234 20.7671 15.8889 20.8131 15.82C20.859 15.7511 20.882 15.6706 20.882 15.5787V14.2692C20.882 14.1773 20.859 14.1083 20.8131 14.0624C20.7671 14.0164 20.6982 13.9935 20.6063 13.9935ZM3.44402 4.61969C3.44402 4.43589 3.51294 4.27506 3.65079 4.13721C3.78864 3.99936 3.94947 3.93044 4.13327 3.93044H17.6425C17.8263 3.93044 17.9872 3.99936 18.125 4.13721C18.2629 4.27506 18.3318 4.43589 18.3318 4.61969V10.0648H17.6425V8.8241C17.6425 8.4565 17.5162 8.14634 17.2635 7.89362C17.0107 7.64089 16.7235 7.51453 16.4019 7.51453H12.4732C12.1515 7.51453 11.8643 7.64089 11.6116 7.89362C11.3589 8.14634 11.2325 8.4565 11.2325 8.8241V10.0648H10.5433V8.8241C10.5433 8.4565 10.4169 8.14634 10.1642 7.89362C9.91147 7.64089 9.62428 7.51453 9.30263 7.51453H5.37392C5.05227 7.51453 4.76508 7.64089 4.51235 7.89362C4.25963 8.14634 4.13327 8.4565 4.13327 8.8241V10.0648H3.44402V4.61969ZM17.0222 8.8241V10.0648H11.8529V8.8241C11.8529 8.6403 11.9218 8.47948 12.0596 8.34163C12.1975 8.20378 12.3353 8.13485 12.4732 8.13485H16.4019C16.5857 8.13485 16.735 8.20378 16.8499 8.34163C16.9648 8.47948 17.0222 8.6403 17.0222 8.8241ZM9.92296 8.8241V10.0648H4.75359V8.8241C4.75359 8.6403 4.81103 8.47948 4.9259 8.34163C5.04078 8.20378 5.19012 8.13485 5.37392 8.13485H9.30263C9.44048 8.13485 9.57833 8.20378 9.71618 8.34163C9.85403 8.47948 9.92296 8.6403 9.92296 8.8241ZM2.13445 11.3743C2.13445 11.1905 2.20337 11.0412 2.34122 10.9263C2.47907 10.8114 2.6399 10.754 2.8237 10.754H18.9521C19.1359 10.754 19.2967 10.8114 19.4346 10.9263C19.5724 11.0412 19.6414 11.1905 19.6414 11.3743V13.9935H2.13445V11.3743ZM2.548 16.8883H2.13445V15.9234H2.75477L2.548 16.8883ZM19.6414 16.8883H19.2278L19.021 15.9234H19.6414V16.8883ZM20.2617 15.2341H1.51412V14.6138H20.2617V15.2341Z" fill="#696969"/>
</g>
<defs>
<clipPath id="clip0_3483_84">
<rect width="20.6775" height="20.6775" fill="white" transform="matrix(1 0 0 -1 0.892822 20.7482)"/>
</clipPath>
</defs>
</svg>
