<svg width="28" height="34" viewBox="0 0 28 34" fill="none" xmlns="http://www.w3.org/2000/svg">
<g clip-path="url(#clip0_3483_100)">
<path d="M14.6707 27.0232C14.1397 27.0232 13.6496 27.1355 13.2003 27.3602C12.751 27.5848 12.363 27.9014 12.0362 28.3098L7.01235 25.7366C7.09403 25.4099 7.13488 25.1035 7.13488 24.8176C7.13488 24.3683 7.05319 23.9599 6.88981 23.5923L12.22 20.4064C12.5059 20.774 12.8633 21.0497 13.2922 21.2335C13.721 21.4173 14.1805 21.5092 14.6707 21.5092C15.5692 21.5092 16.3351 21.2029 16.9682 20.5902C17.6012 19.9776 17.9178 19.2219 17.9178 18.3234C17.9178 17.4248 17.6012 16.659 16.9682 16.0259C16.3351 15.3928 15.5692 15.0762 14.6707 15.0762C13.7721 15.0762 13.0063 15.3928 12.3732 16.0259C11.7401 16.659 11.4235 17.4248 11.4235 18.3234C11.4235 18.7318 11.5052 19.1198 11.6686 19.4874L6.33841 22.6733C6.01166 22.3465 5.64406 22.0811 5.23562 21.8768C4.82717 21.6726 4.37788 21.5705 3.88775 21.5705C2.98918 21.5705 2.22334 21.887 1.59026 22.5201C0.957169 23.1532 0.640625 23.919 0.640625 24.8176C0.640625 25.7162 0.957169 26.482 1.59026 27.1151C2.22334 27.7482 2.98918 28.0648 3.88775 28.0648C4.41873 28.0648 4.91907 27.9422 5.38878 27.6972C5.85849 27.4521 6.2363 27.1049 6.52221 26.6556L11.6073 29.2901C11.4848 29.576 11.4235 29.8823 11.4235 30.2091C11.4235 31.1077 11.7401 31.8735 12.3732 32.5066C13.0063 33.1397 13.7721 33.4562 14.6707 33.4562C15.5692 33.4562 16.3351 33.1397 16.9682 32.5066C17.6012 31.8735 17.9178 31.1077 17.9178 30.2091C17.9178 29.3105 17.6012 28.5549 16.9682 27.9422C16.3351 27.3296 15.5692 27.0232 14.6707 27.0232ZM14.6707 16.179C15.2425 16.179 15.7428 16.3833 16.1717 16.7917C16.6006 17.2001 16.815 17.7005 16.815 18.2927C16.815 18.885 16.6006 19.3955 16.1717 19.8244C15.7428 20.2533 15.2323 20.4677 14.64 20.4677C14.0478 20.4677 13.5474 20.2533 13.139 19.8244C12.7306 19.3955 12.5263 18.885 12.5263 18.2927C12.5263 17.7005 12.7306 17.2001 13.139 16.7917C13.5474 16.3833 14.058 16.179 14.6707 16.179ZM3.88775 26.962C3.31593 26.962 2.81559 26.7475 2.38672 26.3187C1.95786 25.8898 1.74342 25.3792 1.74342 24.787C1.74342 24.1947 1.95786 23.6944 2.38672 23.286C2.81559 22.8775 3.32614 22.6733 3.91839 22.6733C4.51063 22.6733 5.01097 22.8775 5.41942 23.286C5.82786 23.6944 6.03208 24.1947 6.03208 24.787C6.03208 25.3792 5.82786 25.8898 5.41942 26.3187C5.01097 26.7475 4.50042 26.962 3.88775 26.962ZM14.6707 32.3534C14.058 32.3534 13.5474 32.1492 13.139 31.7407C12.7306 31.3323 12.5263 30.832 12.5263 30.2397C12.5263 29.6475 12.7306 29.1369 13.139 28.708C13.5474 28.2792 14.0478 28.0648 14.64 28.0648C15.2323 28.0648 15.7428 28.2792 16.1717 28.708C16.6006 29.1369 16.815 29.6475 16.815 30.2397C16.815 30.832 16.6006 31.3323 16.1717 31.7407C15.7428 32.1492 15.2425 32.3534 14.6707 32.3534Z" fill="#484848"/>
</g>
<defs>
<clipPath id="clip0_3483_100">
<rect width="18.38" height="18.38" fill="white" transform="matrix(1 0 0 -1 0.640625 33.4561)"/>
</clipPath>
</defs>
</svg>
