<svg width="19" height="18" viewBox="0 0 19 18" fill="none" xmlns="http://www.w3.org/2000/svg">
<path d="M8.33254 3.3293H18.3505C18.6025 3.37131 18.802 3.2768 18.949 3.04577C19.0961 2.81475 19.0961 2.58373 18.949 2.35271C18.802 2.12169 18.6025 2.02718 18.3505 2.06918H8.33254C8.16452 2.06918 8.02801 2.13219 7.923 2.2582C7.81799 2.38421 7.76548 2.53123 7.76548 2.69924C7.76548 2.86726 7.81799 3.01427 7.923 3.14028C8.02801 3.2663 8.16452 3.3293 8.33254 3.3293ZM0.708817 3.3293H1.96894C2.05294 3.58133 2.19996 3.81235 2.40998 4.02237L2.91403 4.46341C3.25006 4.84144 3.6806 5.03046 4.20565 5.03046C4.7307 5.03046 5.18224 4.84144 5.56028 4.46341L6.00132 4.02237C6.37935 3.64433 6.56837 3.20329 6.56837 2.69924C6.56837 2.19519 6.37935 1.75415 6.00132 1.37612L5.56028 0.935076C5.18224 0.557039 4.7307 0.368021 4.20565 0.368021C3.6806 0.368021 3.22906 0.557039 2.85102 0.935076L2.47298 1.37612C2.26296 1.58614 2.11595 1.81716 2.03194 2.06918H0.708817C0.456793 2.02718 0.257274 2.12169 0.11026 2.35271C-0.0367535 2.58373 -0.0367535 2.81475 0.11026 3.04577C0.257274 3.2768 0.456793 3.37131 0.708817 3.3293ZM3.29206 2.2582L3.7331 1.81716C3.85911 1.69115 4.01663 1.62814 4.20565 1.62814C4.39467 1.62814 4.53118 1.69115 4.61519 1.81716L5.11923 2.2582C5.24525 2.38421 5.30825 2.53123 5.30825 2.69924C5.30825 2.86726 5.24525 3.01427 5.11923 3.14028L4.67819 3.58133C4.55218 3.70734 4.39467 3.77034 4.20565 3.77034C4.01663 3.77034 3.85911 3.70734 3.7331 3.58133L3.29206 3.14028C3.16605 3.01427 3.10304 2.86726 3.10304 2.69924C3.10304 2.53123 3.16605 2.38421 3.29206 2.2582ZM18.3505 8.36978H13.688C13.394 8.32777 13.184 8.42228 13.058 8.6533C12.932 8.88433 12.932 9.11535 13.058 9.34637C13.184 9.57739 13.394 9.6719 13.688 9.6299H18.4135C18.5395 9.6299 18.6655 9.56689 18.7915 9.44088C18.9175 9.31487 18.9805 9.16785 18.9805 8.99984C18.9805 8.83182 18.9175 8.68481 18.7915 8.5588C18.6655 8.43278 18.5395 8.36978 18.4135 8.36978H18.3505ZM0.708817 9.6299H7.32444C7.40845 9.88192 7.55546 10.1129 7.76548 10.323L8.20653 10.764C8.58456 11.142 9.0256 11.3311 9.52965 11.3311C10.0337 11.3311 10.4747 11.142 10.8528 10.764L11.2938 10.323C11.6719 9.94493 11.8609 9.50388 11.8609 8.99984C11.8609 8.49579 11.6719 8.05475 11.2938 7.67671L10.8528 7.23567C10.4747 6.85763 10.0337 6.66862 9.52965 6.66862C9.0256 6.66862 8.58456 6.85763 8.20653 7.23567L7.76548 7.67671C7.55546 7.88673 7.40845 8.11775 7.32444 8.36978H0.708817C0.540801 8.41178 0.404288 8.48529 0.299278 8.5903C0.194268 8.69531 0.141763 8.83182 0.141763 8.99984C0.141763 9.16785 0.194268 9.31487 0.299278 9.44088C0.404288 9.56689 0.540801 9.6299 0.708817 9.6299ZM8.64757 8.5588L9.08861 8.11775C9.21462 7.99174 9.36163 7.92874 9.52965 7.92874C9.69767 7.92874 9.84468 7.99174 9.97069 8.11775L10.4117 8.5588C10.5377 8.68481 10.6008 8.83182 10.6008 8.99984C10.6008 9.16785 10.5377 9.31487 10.4117 9.44088L9.97069 9.88192C9.84468 10.0079 9.69767 10.0709 9.52965 10.0709C9.36163 10.0709 9.21462 10.0079 9.08861 9.88192L8.64757 9.44088C8.52155 9.31487 8.45855 9.16785 8.45855 8.99984C8.45855 8.83182 8.52155 8.68481 8.64757 8.5588ZM16.2083 13.5363C15.8302 13.1582 15.3787 12.9692 14.8537 12.9692C14.3286 12.9692 13.8771 13.1582 13.499 13.5363L13.058 13.9773C12.848 14.1873 12.701 14.4183 12.6169 14.6704H0.708817C0.456793 14.6284 0.257274 14.7229 0.11026 14.9539C-0.0367535 15.1849 -0.0367535 15.4159 0.11026 15.647C0.257274 15.878 0.456793 15.9725 0.708817 15.9305H12.6169C12.743 16.1825 12.89 16.4135 13.058 16.6236L13.499 17.0646C13.8771 17.4426 14.3286 17.6317 14.8537 17.6317C15.3787 17.6317 15.8302 17.4426 16.2083 17.0646L16.6493 16.6236C17.0274 16.2455 17.2164 15.8045 17.2164 15.3004C17.2164 14.7964 17.0274 14.3553 16.6493 13.9773L16.2083 13.5363ZM15.7672 15.7415L15.3262 16.1825C15.2002 16.3085 15.0532 16.3715 14.8852 16.3715C14.7171 16.3715 14.5701 16.3085 14.4441 16.1825L14.0031 15.7415C13.8771 15.6155 13.8141 15.4684 13.8141 15.3004C13.8141 15.1324 13.8771 14.9854 14.0031 14.8594L14.4441 14.4183C14.5701 14.2923 14.7171 14.2293 14.8852 14.2293C15.0532 14.2293 15.2002 14.2923 15.3262 14.4183L15.7672 14.8594C15.8933 14.9854 15.9563 15.1324 15.9563 15.3004C15.9563 15.4684 15.8933 15.6155 15.7672 15.7415ZM18.3505 15.9305C18.1405 15.9305 17.9724 15.836 17.8464 15.647C17.7204 15.4579 17.6994 15.2584 17.7834 15.0484C17.7834 14.9644 17.8254 14.9014 17.9094 14.8594C18.0775 14.6494 18.298 14.5969 18.571 14.7019C18.844 14.8069 18.9805 15.0064 18.9805 15.3004C18.9805 15.4684 18.9175 15.6155 18.7915 15.7415C18.6655 15.8675 18.5185 15.9305 18.3505 15.9305Z" fill="#181A20"/>
</svg>
